# xmcd
#
# Track frame offsets:
#	150
#	6396
#	24080
#	44116
#	75922
#	102808
#	112239
#	125938
#	152359
#	164377
#	175693
#	191721
#	198774
#
# Disc length: 2711 seconds
#
# Revision: 1
# Processed by: cddbd v1.5PL3 Copyright (c) Steve Scherf et al.
# Submitted via: audiograbber 1.82.01
#
DISCID=a10a950d
DTITLE=Dr John - 1985-04-31
DYEAR=1900
DGENRE=
TTITLE0=Dr John - Rockin' Pneumonia
TTITLE1=Dr John - Don't You Just Know It
TTITLE2=Dr John - Rain or Shine
TTITLE3=Dr John - Street Parade - Traveling Mood
TTITLE4=Dr John - Iko Iko
TTITLE5=Dr John - Something You Got
TTITLE6=Dr John - I Know
TTITLE7=Dr John - Junco Partner
TTITLE8=Dr John - City Lights
TTITLE9=Dr John - Since I Fell For You
TTITLE10=Dr John - Come On, Let the Good Times Roll
TTITLE11=Dr John - Trick Bag
TTITLE12=Dr John - Ooh Poo Pa Doo
EXTD=
EXTT0=
EXTT1=
EXTT2=
EXTT3=
EXTT4=
EXTT5=
EXTT6=
EXTT7=
EXTT8=
EXTT9=
EXTT10=
EXTT11=
EXTT12=
PLAYORDER=
